# Blender v2.80 (sub 75) OBJ File: ''
# www.blender.org
v -0.908630 0.302753 -0.908630
v -0.908630 0.302753 0.908630
v -0.908630 0.302753 0.908630
v -0.908630 0.302753 -0.908630
v 1.000000 -0.641395 1.000000
v 1.000000 0.302753 1.000000
v -1.000000 0.302753 1.000000
v -1.000000 -0.641395 1.000000
v -1.000000 0.302753 -1.000000
v -1.000000 -0.641395 -1.000000
v 1.000000 -0.641395 -1.000000
v 1.000000 0.302753 -1.000000
v 0.908630 0.302753 0.908630
v 0.908630 0.302753 -0.908630
v 0.908630 0.302753 0.908630
v 0.908630 -0.266864 0.908630
v -0.908630 -0.266864 0.908630
v 0.908630 0.302753 -0.908630
v 0.908630 -0.266864 -0.908630
v -0.908630 -0.266864 -0.908630
vt 0.000000 0.000000
vt 1.000000 1.000000
vt 0.000000 1.000000
vt 1.000000 0.000000
vt 0.000000 1.000000
vt 0.000000 0.000000
vt 1.000000 0.000000
vt 0.000000 1.000000
vt 0.000000 0.000000
vt 1.000000 0.000000
vt 0.000000 0.000000
vt 1.000000 0.000000
vt 0.000000 1.000000
vt 0.000000 0.000000
vt 1.000000 0.000000
vt 0.000000 1.000000
vt 0.000000 0.000000
vt 1.000000 1.000000
vt 0.000000 1.000000
vt 0.000000 0.000000
vt 1.000000 1.000000
vt 0.000000 1.000000
vt 0.000000 0.000000
vt 1.000000 1.000000
vt 0.000000 1.000000
vt 1.000000 1.000000
vt 0.000000 1.000000
vt 1.000000 0.000000
vt 0.000000 1.000000
vt 0.000000 0.000000
vt 1.000000 1.000000
vt 0.000000 1.000000
vt 1.000000 1.000000
vt 0.000000 1.000000
vt 1.000000 1.000000
vt 0.000000 1.000000
vt 1.000000 0.000000
vt 0.000000 1.000000
vt 0.000000 0.000000
vt 1.000000 0.000000
vt 0.000000 1.000000
vt 0.000000 0.000000
vt 1.000000 0.000000
vt 0.000000 0.000000
vt 1.000000 0.000000
vt 0.000000 1.000000
vt 0.000000 0.000000
vt 1.000000 0.000000
vt 1.000000 1.000000
vt 1.000000 0.000000
vt 1.000000 0.000000
vt 1.000000 0.000000
vt 1.000000 1.000000
vt 1.000000 1.000000
vt 1.000000 1.000000
vt 1.000000 1.000000
vn 0.0000 0.0000 0.0000
vn 0.0000 -0.0000 1.0000
vn -1.0000 0.0000 0.0000
vn 0.0000 -1.0000 -0.0000
vn 1.0000 0.0000 0.0000
vn 0.0000 0.0000 -1.0000
vn 0.0000 1.0000 0.0000
vn -0.3535 0.1464 -0.9239
vn -0.3827 0.0000 -0.9239
vn 0.0000 0.0000 -0.9239
vn 0.3535 -0.1464 -0.9239
vn 0.3827 0.0000 -0.9239
vn 0.0290 0.3815 -0.9239
vn 0.2225 0.3113 -0.9239
s off
f 1/1/1 3/2/1 4/3/1
f 6/4/2 8/5/2 5/6/2
f 7/7/3 10/8/3 8/9/3
f 11/10/4 8/5/4 10/11/4
f 12/12/5 5/13/5 11/14/5
f 9/15/6 11/16/6 10/11/6
f 13/17/7 7/18/7 6/19/7
f 14/20/7 6/21/7 12/22/7
f 2/23/7 9/24/7 7/25/7
f 1/1/7 12/26/7 9/27/7
f 15/28/6 17/29/6 3/30/6
f 2/23/8 15/31/9 3/32/10
f 14/20/11 4/33/12 18/34/10
f 13/17/1 18/35/1 15/36/1
f 20/37/7 16/38/7 19/39/7
f 4/40/13 19/41/2 18/42/11
f 18/43/3 16/38/3 15/44/3
f 3/45/5 20/46/5 4/47/5
f 1/1/1 2/48/1 3/2/1
f 6/4/2 7/18/2 8/5/2
f 7/7/3 9/24/3 10/8/3
f 11/10/4 5/49/4 8/5/4
f 12/12/5 6/21/5 5/13/5
f 9/15/6 12/26/6 11/16/6
f 13/17/7 2/48/7 7/18/7
f 14/20/7 13/50/7 6/21/7
f 2/23/7 1/51/7 9/24/7
f 1/1/7 14/52/7 12/26/7
f 15/28/6 16/53/6 17/29/6
f 2/23/12 13/50/10 15/31/11
f 14/20/9 1/51/10 4/33/8
f 13/17/1 14/52/1 18/35/1
f 20/37/7 17/54/7 16/38/7
f 4/40/14 20/55/2 19/41/2
f 18/43/3 19/56/3 16/38/3
f 3/45/5 17/54/5 20/46/5
